<svg width="100%" height="100%" viewBox="0 0 89 20" fill="none" xmlns="http://www.w3.org/2000/svg">
<path d="M20.6074 18.931H16.0662V11.8165C16.0662 11.4128 15.9485 11.0849 15.713 10.8326C15.4944 10.5803 15.1496 10.4541 14.6786 10.4541C13.9891 10.4541 13.3667 10.7737 12.8117 11.4128V18.931H8.2705V11.8165C8.2705 10.9083 7.80797 10.4541 6.88291 10.4541C6.21014 10.4541 5.59624 10.7737 5.0412 11.4128V18.931H0.5V6.74548H5.0412V8.13307C5.36077 7.72941 5.89057 7.35098 6.63062 6.99777C7.37067 6.62775 8.1864 6.44274 9.07783 6.44274C10.8943 6.44274 12.0632 7.15756 12.5846 8.58719C12.9715 7.99852 13.5433 7.49394 14.3002 7.07346C15.0739 6.65298 15.9233 6.44274 16.8483 6.44274C18.0089 6.44274 18.9255 6.74548 19.5983 7.35098C20.271 7.95647 20.6074 8.87312 20.6074 10.1009V18.931Z" fill="#fff"></path>
<path d="M27.9607 5.13083C27.4729 5.61859 26.8758 5.86247 26.1694 5.86247C25.463 5.86247 24.8575 5.61859 24.3529 5.13083C23.8652 4.62626 23.6213 4.02076 23.6213 3.31435C23.6213 2.60795 23.8652 2.01086 24.3529 1.5231C24.8575 1.01852 25.463 0.766235 26.1694 0.766235C26.8758 0.766235 27.4729 1.01852 27.9607 1.5231C28.4652 2.01086 28.7175 2.60795 28.7175 3.31435C28.7175 4.02076 28.4652 4.62626 27.9607 5.13083ZM28.44 18.931H23.8988V6.74548H28.44V18.931Z" fill="#fff"></path>
<path d="M37.7312 19.2338C35.7633 19.2338 34.1318 18.6451 32.8367 17.4678C31.5417 16.2904 30.8941 14.743 30.8941 12.8256C30.8941 10.9251 31.5417 9.38611 32.8367 8.20876C34.1318 7.03141 35.7633 6.44274 37.7312 6.44274C38.9926 6.44274 40.069 6.67821 40.9604 7.14915C41.8519 7.60327 42.4994 8.13307 42.9031 8.73857L39.9765 11.4885C39.5224 10.7989 38.8412 10.4541 37.933 10.4541C37.2602 10.4541 36.6884 10.6644 36.2174 11.0849C35.7633 11.4885 35.5362 12.0688 35.5362 12.8256C35.5362 13.5825 35.7633 14.1712 36.2174 14.5917C36.6884 15.0122 37.2602 15.2224 37.933 15.2224C38.8076 15.2224 39.4888 14.8692 39.9765 14.1628L42.9031 16.938C42.4994 17.5435 41.8519 18.0817 40.9604 18.5526C40.069 19.0067 38.9926 19.2338 37.7312 19.2338Z" fill="#fff"></path>
<path d="M49.6885 18.931H45.1473V6.74548H49.6885V8.08262C50.0753 7.6285 50.6219 7.23324 51.3283 6.89686C52.0516 6.56047 52.7496 6.39228 53.4223 6.39228V10.7317C53.1701 10.6476 52.8253 10.6055 52.388 10.6055C51.0592 10.6055 50.1594 10.8914 49.6885 11.4633V18.931Z" fill="#fff"></path>
<path d="M66.7343 17.3669C65.4897 18.6115 63.8246 19.2338 61.739 19.2338C59.6534 19.2338 57.9883 18.6115 56.7437 17.3669C55.5159 16.1222 54.902 14.6085 54.902 12.8256C54.902 11.0428 55.5159 9.53748 56.7437 8.30968C57.9883 7.06505 59.6534 6.44274 61.739 6.44274C63.8246 6.44274 65.4897 7.06505 66.7343 8.30968C67.979 9.53748 68.6013 11.0428 68.6013 12.8256C68.6013 14.6085 67.979 16.1222 66.7343 17.3669ZM61.739 15.2224C62.4286 15.2224 62.9668 15.0037 63.3537 14.5664C63.7405 14.1123 63.9339 13.5321 63.9339 12.8256C63.9339 12.1361 63.7405 11.5726 63.3537 11.1353C62.9668 10.6812 62.4286 10.4541 61.739 10.4541C61.0662 10.4541 60.5364 10.6812 60.1496 11.1353C59.7628 11.5726 59.5693 12.1361 59.5693 12.8256C59.5693 13.5321 59.7628 14.1123 60.1496 14.5664C60.5364 15.0037 61.0662 15.2224 61.739 15.2224Z" fill="#fff"></path>
<path d="M80.614 18.931H75.5177V8.58719L72.6669 11.4128L69.7908 8.41059L76.2241 2.10337H80.614V18.931Z" fill="#fff"></path>
<path d="M88.1927 18.4264C87.6545 18.9646 87.0238 19.2337 86.3006 19.2337C85.5773 19.2337 84.9466 18.9646 84.4084 18.4264C83.8702 17.8882 83.6011 17.2574 83.6011 16.5342C83.6011 15.811 83.8702 15.1803 84.4084 14.642C84.9466 14.1038 85.5773 13.8347 86.3006 13.8347C87.0238 13.8347 87.6545 14.1038 88.1927 14.642C88.7309 15.1803 89.0001 15.811 89.0001 16.5342C89.0001 17.2574 88.7309 17.8882 88.1927 18.4264Z" fill="#3444DA"></path>
</svg>
